<svg aria-hidden="true" style="position: absolute; width: 0; height: 0; overflow: hidden;" version="1.1"
  xmlns="http://www.w3.org/2000/svg"
  xmlns:xlink="http://www.w3.org/1999/xlink">
  <defs>
    <!-- Іконка Лого -->
    <symbol id="logo" viewBox="0 0 83 32">
      <path fill="#e6533c" style="fill: var(--color1, #e6533c)" d="M80.941 13.714c1.040 0 1.882 0.843 1.882 1.882v0.807c0 1.040-0.843 1.882-1.882 1.882h-2.151c-1.039 0-1.882 0.843-1.882 1.882v5.378c0 1.040-0.843 1.882-1.882 1.882h-2.151c-1.040 0-1.882 0.843-1.882 1.882v0.807c0 1.040-0.843 1.882-1.882 1.882h-5.109c-1.040 0-1.882-0.843-1.882-1.882v-9.95c0-1.040-0.843-1.882-1.882-1.882h-37.647c-1.040 0-1.882 0.843-1.882 1.882v9.95c0 1.040-0.843 1.882-1.882 1.882h-5.109c-1.040 0-1.882-0.843-1.882-1.882v-0.807c0-1.040-0.843-1.882-1.882-1.882h-2.151c-1.040 0-1.882-0.843-1.882-1.882v-5.378c0-1.040-0.843-1.882-1.882-1.882h-2.151c-1.040 0-1.882-0.843-1.882-1.882v-0.807c0-1.040 0.843-1.882 1.882-1.882h2.151c1.040 0 1.882-0.843 1.882-1.882v-5.378c0-1.040 0.843-1.882 1.882-1.882h2.151c1.040 0 1.882-0.843 1.882-1.882v-0.807c0-1.040 0.843-1.882 1.882-1.882h5.109c1.040 0 1.882 0.843 1.882 1.882v9.95c0 1.040 0.843 1.882 1.882 1.882h37.647c1.040 0 1.882-0.843 1.882-1.882v-9.95c0-1.040 0.843-1.882 1.882-1.882h5.109c1.040 0 1.882 0.843 1.882 1.882v0.807c0 1.040 0.843 1.882 1.882 1.882h2.151c1.040 0 1.882 0.843 1.882 1.882v5.378c0 1.040 0.843 1.882 1.882 1.882h2.151z"></path>
    </symbol>
    <!-- Іконка Лого на сторінці 404 -->
    <symbol id="logo-error" viewBox="0 0 83 32">
      <path d="M80.941 13.714c1.040 0 1.882 0.843 1.882 1.882v0.807c0 1.040-0.843 1.882-1.882 1.882h-2.151c-1.039 0-1.882 0.843-1.882 1.882v5.378c0 1.040-0.843 1.882-1.882 1.882h-2.151c-1.040 0-1.882 0.843-1.882 1.882v0.807c0 1.040-0.843 1.882-1.882 1.882h-5.109c-1.040 0-1.882-0.843-1.882-1.882v-9.95c0-1.040-0.843-1.882-1.882-1.882h-37.647c-1.040 0-1.882 0.843-1.882 1.882v9.95c0 1.040-0.843 1.882-1.882 1.882h-5.109c-1.040 0-1.882-0.843-1.882-1.882v-0.807c0-1.040-0.843-1.882-1.882-1.882h-2.151c-1.040 0-1.882-0.843-1.882-1.882v-5.378c0-1.040-0.843-1.882-1.882-1.882h-2.151c-1.040 0-1.882-0.843-1.882-1.882v-0.807c0-1.040 0.843-1.882 1.882-1.882h2.151c1.040 0 1.882-0.843 1.882-1.882v-5.378c0-1.040 0.843-1.882 1.882-1.882h2.151c1.040 0 1.882-0.843 1.882-1.882v-0.807c0-1.040 0.843-1.882 1.882-1.882h5.109c1.040 0 1.882 0.843 1.882 1.882v9.95c0 1.040 0.843 1.882 1.882 1.882h37.647c1.040 0 1.882-0.843 1.882-1.882v-9.95c0-1.040 0.843-1.882 1.882-1.882h5.109c1.040 0 1.882 0.843 1.882 1.882v0.807c0 1.040 0.843 1.882 1.882 1.882h2.151c1.040 0 1.882 0.843 1.882 1.882v5.378c0 1.040 0.843 1.882 1.882 1.882h2.151z"></path>
    </symbol>
    <!-- Кнопка "Закриття Хрестик" -->
    <symbol id="close" viewBox="0 0 32 32">
      <path stroke-linejoin="round" stroke-linecap="round" stroke-miterlimit="4" stroke-width="2.4615" d="M24 8l-16 16"></path>
      <path stroke-linejoin="round" stroke-linecap="round" stroke-miterlimit="4" stroke-width="2.4615" d="M8 8l16 16"></path>
    </symbol>
    <!-- Кнопка "Додати аватар" -->
    <symbol id="add_avatar" viewBox="0 0 33 32">
      <path fill="#e6533c" style="fill: var(--color1, #e6533c)" d="M11.238 0.428l4.69 1.356c0.339 0.098 0.699 0.099 1.038 0.002l4.83-1.375c0.845-0.241 1.744 0.136 2.166 0.906l2.506 4.577c0.168 0.307 0.419 0.561 0.723 0.734l3.986 2.258c0.771 0.437 1.133 1.352 0.869 2.198l-1.381 4.428c-0.113 0.363-0.114 0.752-0.002 1.115l1.394 4.521c0.258 0.836-0.094 1.739-0.849 2.18l-4.443 2.597c-0.303 0.177-0.551 0.436-0.715 0.746l-2.114 4.004c-0.409 0.775-1.298 1.165-2.145 0.941l-4.863-1.284c-0.317-0.084-0.651-0.083-0.968 0.002l-4.715 1.264c-0.867 0.232-1.777-0.179-2.175-0.983l-2.106-4.256c-0.177-0.357-0.462-0.649-0.816-0.834l-4.304-2.247c-0.786-0.411-1.179-1.314-0.943-2.169l1.255-4.548c0.089-0.322 0.090-0.662 0.005-0.985l-1.288-4.843c-0.221-0.833 0.151-1.71 0.904-2.129l4.422-2.46c0.322-0.179 0.584-0.448 0.754-0.775l2.090-4.007c0.414-0.794 1.331-1.187 2.192-0.938z"></path>
      <path fill="none" stroke="#efede8" style="stroke: var(--color2, #efede8)" stroke-linejoin="round" stroke-linecap="round" stroke-miterlimit="4" stroke-width="2" d="M16.5 10.75v10.5"></path>
      <path fill="none" stroke="#efede8" style="stroke: var(--color2, #efede8)" stroke-linejoin="round" stroke-linecap="round" stroke-miterlimit="4" stroke-width="2" d="M11.25 16h10.5"></path>
    </symbol>
    <!-- Кнопка "Бургер меню" -->
    <symbol id="menu" viewBox="0 0 32 32">
      <path fill="none" stroke="#e6533c" style="stroke: var(--color1, #e6533c)" stroke-linejoin="round" stroke-linecap="round" stroke-miterlimit="4" stroke-width="3" d="M4 16h16M4 8h24M4 24h24"></path>
    </symbol>
    <!-- Іконка "Часи" -->
    <symbol id="watch" viewBox="0 0 32 32">
      <path fill="none" stroke="#efede8" style="stroke: var(--color2, #efede8)" stroke-linejoin="round" stroke-linecap="round" stroke-miterlimit="4" stroke-width="2" d="M16.001 25.333c5.155 0 9.333-4.179 9.333-9.333s-4.179-9.333-9.333-9.333c-5.155 0-9.333 4.179-9.333 9.333s4.179 9.333 9.333 9.333z"></path>
      <path fill="none" stroke="#efede8" style="stroke: var(--color2, #efede8)" stroke-linejoin="round" stroke-linecap="round" stroke-miterlimit="4" stroke-width="2" d="M16 12v4l2 2"></path>
      <path fill="none" stroke="#efede8" style="stroke: var(--color2, #efede8)" stroke-linejoin="round" stroke-linecap="round" stroke-miterlimit="4" stroke-width="2" d="M22.013 23.133l-0.467 5.107c-0.060 0.665-0.367 1.283-0.861 1.732s-1.138 0.697-1.806 0.694h-5.773c-0.668 0.003-1.312-0.245-1.806-0.694s-0.801-1.067-0.861-1.732l-0.467-5.107M9.986 8.867l0.467-5.107c0.060-0.663 0.365-1.279 0.856-1.728s1.132-0.698 1.797-0.699h5.8c0.668-0.003 1.312 0.245 1.806 0.694s0.801 1.067 0.861 1.732l0.467 5.107"></path>
    </symbol>
    <!-- Іконка "Знак оклику" -->
    <symbol id="note" viewBox="0 0 32 32">
      <path fill="#efa082" style="fill: var(--color3, #efa082)" d="M32 16c0 8.837-7.163 16-16 16s-16-7.163-16-16c0-8.837 7.163-16 16-16s16 7.163 16 16z"></path>
      <path fill="none" stroke="#efede8" style="stroke: var(--color2, #efede8)" stroke-linejoin="round" stroke-linecap="round" stroke-miterlimit="4" stroke-width="2.6667" d="M16 25.333v0.013M16 20v-13.333"></path>
    </symbol>
    <!-- Іконка "Корзина" -->
    <symbol id="delete" viewBox="0 0 32 32">
      <path fill="inherit" stroke="inherit" style="inherit" stroke-linejoin="round" stroke-linecap="round" stroke-miterlimit="4" stroke-width="2.4" d="M12 4h8M13.333 14v6.667M18.667 14v6.667"></path>
      <path fill="none" stroke="inherit" style="inherit" stroke-linejoin="round" stroke-linecap="round" stroke-miterlimit="4" stroke-width="2.4" d="M4 8h24M25.333 8l-0.935 14.026c-0.14 2.104-0.21 3.156-0.665 3.954-0.4 0.702-1.004 1.267-1.731 1.62-0.826 0.4-1.881 0.4-3.99 0.4h-4.025c-2.109 0-3.163 0-3.99-0.4-0.727-0.352-1.331-0.917-1.731-1.62-0.455-0.798-0.525-1.85-0.665-3.954l-0.935-14.026"></path>
    </symbol>
    <!-- Іконка "Галочка вниз"-->
    <symbol id="small_arrow" viewBox="0 0 32 32">
      <path fill="none" stroke="#efede8" style="stroke: var(--color2, #efede8)" stroke-linejoin="round" stroke-linecap="round" stroke-miterlimit="4" stroke-width="3.5556" d="M8 12l8 8 8-8"></path>
    </symbol>
    <!-- Іконка "Стрілка вправо"-->
    <symbol id="big_arrow" viewBox="0 0 32 32">
      <path fill="none" stroke="#e6533c" style="stroke: var(--color1, #e6533c)" stroke-linejoin="round" stroke-linecap="round" stroke-miterlimit="4" stroke-width="2.6" d="M15 28l13-13M28 15l-13-13M28 15h-26"></path>
    </symbol>
    <!-- Іконка "Пошук"-->
    <symbol id="search" viewBox="0 0 32 32">
      <path fill="none" stroke="#efede8" style="stroke: var(--color2, #efede8)" stroke-linejoin="round" stroke-linecap="round" stroke-miterlimit="4" stroke-width="2.6667" d="M14.667 25.333c5.891 0 10.667-4.776 10.667-10.667s-4.776-10.667-10.667-10.667c-5.891 0-10.667 4.776-10.667 10.667s4.776 10.667 10.667 10.667z"></path>
      <path fill="none" stroke="#efede8" style="stroke: var(--color2, #efede8)" stroke-linejoin="round" stroke-linecap="round" stroke-miterlimit="4" stroke-width="2.6667" d="M28 28l-5.8-5.8"></path>
    </symbol>
    <!-- Іконка "Юзер"-->
    <symbol id="user" viewBox="0 0 32 32">
      <path fill="#efede8" style="fill: var(--color2, #efede8)" opacity="0.1" d="M16 5.333c1.415 0 2.771 0.562 3.771 1.562s1.562 2.357 1.562 3.771-0.562 2.771-1.562 3.771c-1 1-2.357 1.562-3.771 1.562s-2.771-0.562-3.771-1.562c-1-1-1.562-2.357-1.562-3.771s0.562-2.771 1.562-3.771c1-1 2.357-1.562 3.771-1.562zM16 26.667c0 0 10.667 0 10.667-2.667 0-3.2-5.2-6.667-10.667-6.667s-10.667 3.467-10.667 6.667c0 2.667 10.667 2.667 10.667 2.667z"></path>
    </symbol>
    <!-- Іконки "Настройки. Шестерня"-->
    <symbol id="settings" viewBox="0 0 32 32">
      <path fill="none" stroke="" style="stroke" stroke-linejoin="round" stroke-linecap="round" stroke-miterlimit="4" stroke-width="2.2857" d="M16 20c2.209 0 4-1.791 4-4s-1.791-4-4-4c-2.209 0-4 1.791-4 4s1.791 4 4 4z"></path>
      <path fill="none" stroke="" style="stroke: var(--color2)" stroke-linejoin="round" stroke-linecap="round" stroke-miterlimit="4" stroke-width="2.2857" d="M24.969 19.636c-0.161 0.366-0.209 0.771-0.138 1.164s0.259 0.756 0.538 1.042l0.073 0.073c0.225 0.225 0.404 0.492 0.526 0.787s0.185 0.61 0.185 0.928c0 0.319-0.063 0.634-0.185 0.928s-0.301 0.562-0.526 0.787c-0.225 0.225-0.493 0.404-0.787 0.526s-0.61 0.185-0.928 0.185c-0.319 0-0.634-0.063-0.928-0.185s-0.562-0.301-0.787-0.526l-0.073-0.073c-0.286-0.279-0.648-0.467-1.042-0.538s-0.799-0.023-1.164 0.138c-0.358 0.154-0.664 0.409-0.88 0.734s-0.331 0.706-0.333 1.096v0.206c0 0.643-0.255 1.26-0.71 1.714s-1.071 0.71-1.714 0.71-1.26-0.255-1.714-0.71c-0.455-0.455-0.71-1.071-0.71-1.714v-0.109c-0.009-0.401-0.139-0.79-0.373-1.117s-0.56-0.575-0.936-0.714c-0.366-0.161-0.771-0.209-1.164-0.138s-0.756 0.259-1.042 0.538l-0.073 0.073c-0.225 0.225-0.492 0.404-0.787 0.526s-0.61 0.185-0.928 0.185-0.634-0.063-0.928-0.185c-0.294-0.122-0.562-0.301-0.787-0.526s-0.404-0.493-0.526-0.787-0.185-0.61-0.185-0.928c0-0.319 0.063-0.634 0.185-0.928s0.301-0.562 0.526-0.787l0.073-0.073c0.279-0.286 0.467-0.648 0.538-1.042s0.023-0.799-0.138-1.164c-0.154-0.358-0.409-0.664-0.734-0.88s-0.706-0.331-1.096-0.332h-0.206c-0.643 0-1.26-0.255-1.714-0.71s-0.71-1.071-0.71-1.714c0-0.643 0.255-1.26 0.71-1.714s1.071-0.71 1.714-0.71h0.109c0.401-0.009 0.79-0.139 1.117-0.373s0.575-0.56 0.714-0.936c0.161-0.366 0.21-0.771 0.138-1.164s-0.259-0.756-0.538-1.042l-0.073-0.073c-0.225-0.225-0.404-0.492-0.526-0.787s-0.185-0.61-0.185-0.928c0-0.319 0.063-0.634 0.185-0.928s0.301-0.562 0.526-0.787c0.225-0.225 0.492-0.404 0.787-0.526s0.61-0.185 0.928-0.185c0.319 0 0.634 0.063 0.928 0.185s0.562 0.301 0.787 0.526l0.073 0.073c0.286 0.279 0.649 0.467 1.042 0.538s0.799 0.023 1.164-0.138h0.097c0.358-0.154 0.664-0.409 0.88-0.734s0.331-0.706 0.333-1.096v-0.206c0-0.643 0.255-1.26 0.71-1.714s1.071-0.71 1.714-0.71 1.26 0.255 1.714 0.71c0.455 0.455 0.71 1.071 0.71 1.714v0.109c0.002 0.39 0.117 0.771 0.332 1.096s0.521 0.58 0.88 0.734c0.366 0.161 0.771 0.209 1.164 0.138s0.756-0.259 1.042-0.538l0.073-0.073c0.225-0.225 0.493-0.404 0.787-0.526s0.61-0.185 0.928-0.185c0.319 0 0.634 0.063 0.928 0.185s0.562 0.301 0.787 0.526c0.226 0.225 0.404 0.492 0.526 0.787s0.185 0.61 0.185 0.928-0.063 0.634-0.185 0.928c-0.122 0.294-0.301 0.562-0.526 0.787l-0.073 0.073c-0.279 0.286-0.467 0.649-0.538 1.042s-0.023 0.799 0.138 1.164v0.097c0.154 0.358 0.409 0.664 0.734 0.88s0.706 0.331 1.096 0.332h0.206c0.643 0 1.26 0.255 1.714 0.71s0.71 1.071 0.71 1.714c0 0.643-0.255 1.26-0.71 1.714s-1.071 0.71-1.714 0.71h-0.109c-0.39 0.002-0.771 0.117-1.096 0.332s-0.58 0.521-0.734 0.88z"></path>
    </symbol>
    <!-- Іконка "Вийти"-->
    <symbol id="logout" viewBox="0 0 32 32">
      <path fill="none" style="stroke: var(--color1)" stroke-linejoin="round" stroke-linecap="round" stroke-miterlimit="4" stroke-width="2.4" d="M12 4h-1.6c-2.24 0-3.36 0-4.216 0.436-0.753 0.383-1.365 0.995-1.748 1.748-0.436 0.856-0.436 1.976-0.436 4.216v11.2c0 2.24 0 3.36 0.436 4.216 0.383 0.753 0.995 1.364 1.748 1.748 0.856 0.436 1.976 0.436 4.216 0.436h1.6"></path>
      <path fill="none" style="stroke: var(--color1)" stroke-linejoin="round" stroke-linecap="round" stroke-miterlimit="4" stroke-width="2.4" d="M21.333 22.667l6.667-6.667M28 16l-6.667-6.667M28 16h-16"></path>
    </symbol>
    <!-- Іконка "Вогонь"-->
    <symbol id="fire" viewBox="0 0 32 32">
      <path fill="#ef8964" style="fill: var(--color4, #ef8964)" d="M16.001 22.291c-0.946 0.72-2.898 2.5-2.898 4.925 0 1.601 1.3 2.904 2.897 2.904s2.897-1.303 2.897-2.904c0-2.297-1.954-4.161-2.895-4.925z"></path>
      <path fill="#ef8964" style="fill: var(--color4, #ef8964)" d="M22.789 5.57c-0.351-0.397-0.958-0.421-1.34-0.064l-4.412 4.117v-8.623c0-0.722-0.87-1.261-1.522-0.867-0.123 0.075-3.055 1.865-6.017 5.116-3.602 3.953-6.055 8.766-6.055 14.164 0 6.941 5.633 12.587 12.557 12.587-2.631 0-4.772-2.146-4.772-4.784 0-4.262 4.138-6.786 4.314-6.891 0.309-0.184 0.695-0.176 0.996 0.022 0.173 0.114 4.234 2.838 4.234 6.869 0 2.638-2.141 4.784-4.772 4.784 6.924 0 12.557-5.647 12.557-12.587 0-5.241-2.313-9.938-5.767-13.843z"></path>
    </symbol>
    <!-- Іконка "Play. Трикутник"-->
    <symbol id="play" viewBox="-0.5 0 10 12">
      <path fill="inherit" stroke="inherit" stroke-linecap="round" stroke-linejoin="round" stroke-width="1.3" d="M.917.75 9.083 6 .917 11.25V.75Z"/>
    </symbol>
    <!-- Іконка "Пауза. Дві лінії"-->
    <symbol id="pause" viewBox="0 0 8 10">
      <path fill="none" stroke="inherit" stroke-linecap="round" stroke-linejoin="round" stroke-width="1.3" d="M.666 9V1m6.667 8V1"/>
    </symbol>
    <!-- Іконка "Людина, що біжить"-->
    <symbol id="running" viewBox="0 0 32 32">
      <path d="M29.648 9.451c-0.219-0.26-0.545-0.424-0.909-0.424-0.29 0-0.556 0.104-0.762 0.277l0.002-0.002-3.28 2.757-1.51-3.739c-0.056-0.14-0.134-0.261-0.229-0.364l0.001 0.001c-0.321-0.716-0.875-1.281-1.563-1.608l-0.019-0.008c-0.32-0.146-0.651-0.224-0.982-0.262-0.072-0.038-0.139-0.088-0.222-0.114l-5.776-1.61c-0.093-0.026-0.199-0.041-0.31-0.041-0.223 0-0.432 0.062-0.611 0.169l0.005-0.003c-0.33 0.108-0.59 0.352-0.717 0.664l-0.003 0.008-2.174 5.592c-0.050 0.127-0.079 0.273-0.079 0.427 0 0.501 0.31 0.929 0.748 1.103l0.008 0.003c0.126 0.050 0.272 0.079 0.425 0.079 0.5 0 0.928-0.31 1.103-0.748l0.003-0.008 1.837-4.723 2.63 0.731c-0.064 0.104-0.133 0.202-0.186 0.312l-3.371 7.312c-0.048 0.107-0.075 0.216-0.11 0.326l-4.098 6.87-6.859 2.294c-0.42 0.323-0.687 0.826-0.687 1.391 0 0.968 0.784 1.752 1.752 1.752 0.381 0 0.733-0.122 1.021-0.328l-0.005 0.004 7.019-2.416c0.216-0.157 0.371-0.362 0.49-0.581 0.088-0.094 0.189-0.168 0.256-0.285l2.443-4.096 4.336 3.696-4.64 5.229c-0.273 0.307-0.439 0.714-0.439 1.16 0 0.967 0.784 1.751 1.751 1.751 0.521 0 0.99-0.228 1.31-0.589l0.002-0.002 5.79-6.523c0.179-0.202 0.288-0.432 0.36-0.675 0.043-0.133 0.043-0.269 0.053-0.406 0-0.069 0.027-0.131 0.021-0.195-0.009-0.509-0.239-0.963-0.598-1.272l-0.002-0.002-3.992-3.403c0.288-0.274 0.533-0.6 0.709-0.982l2.586-5.6 0.829 2.208c0.031 0.211 0.116 0.398 0.242 0.551l-0.002-0.002c0.121 0.138 0.273 0.247 0.445 0.314l0.008 0.003c0.018 0.008 0.038 0.010 0.059 0.016 0.096 0.040 0.208 0.069 0.325 0.080l0.005 0c0.024 0.002 0.052 0.003 0.081 0.003 0.116 0 0.227-0.017 0.332-0.050l-0.008 0.002h0.005c0.037-0.010 0.074-0.003 0.11-0.019 0.186-0.076 0.343-0.192 0.464-0.337l0.002-0.002 4.71-3.997c0.501-0.422 0.288-1.168-0.133-1.667zM23.69 6.602c1.823 0 3.301-1.478 3.301-3.301s-1.478-3.301-3.301-3.301v0c-1.823 0-3.301 1.478-3.301 3.301s1.478 3.301 3.301 3.301v0z"></path>
    </symbol>
    <!-- Іконка "Гантель"-->
    <symbol id="dumbbell" viewBox="0 0 32 32">
      <path fill="#ef8964" style="fill: var(--color4, #ef8964)" d="M5.2 8h-2.4c-0.665 0-1.2 0.535-1.2 1.2v5.2h-1.2c-0.22 0-0.4 0.18-0.4 0.4v2.4c0 0.22 0.18 0.4 0.4 0.4h1.2v5.2c0 0.665 0.535 1.2 1.2 1.2h2.4c0.665 0 1.2-0.535 1.2-1.2v-13.6c0-0.665-0.535-1.2-1.2-1.2zM31.6 14.4h-1.2v-5.2c0-0.665-0.535-1.2-1.2-1.2h-2.4c-0.665 0-1.2 0.535-1.2 1.2v13.6c0 0.665 0.535 1.2 1.2 1.2h2.4c0.665 0 1.2-0.535 1.2-1.2v-5.2h1.2c0.22 0 0.4-0.18 0.4-0.4v-2.4c0-0.22-0.18-0.4-0.4-0.4zM22.8 4.8h-2.4c-0.665 0-1.2 0.535-1.2 1.2v8.4h-6.4v-8.4c0-0.665-0.535-1.2-1.2-1.2h-2.4c-0.665 0-1.2 0.535-1.2 1.2v20c0 0.665 0.535 1.2 1.2 1.2h2.4c0.665 0 1.2-0.535 1.2-1.2v-8.4h6.4v8.4c0 0.665 0.535 1.2 1.2 1.2h2.4c0.665 0 1.2-0.535 1.2-1.2v-20c0-0.665-0.535-1.2-1.2-1.2z"></path>
    </symbol>
    <!-- Іконка "Нож з вилкою"-->
    <symbol id="food" viewBox="0 0 32 32">
      <path fill="#ef8964" style="fill: var(--color4, #ef8964)" d="M24 4c0.327 0 0.642 0.12 0.886 0.337s0.4 0.516 0.438 0.84l0.009 0.156v21.333c-0 0.34-0.131 0.667-0.364 0.914s-0.552 0.396-0.891 0.416c-0.339 0.020-0.673-0.090-0.934-0.308s-0.428-0.528-0.468-0.865l-0.009-0.156v-6.667h-1.333c-0.327 0-0.642-0.12-0.886-0.337s-0.4-0.516-0.438-0.84l-0.009-0.156v-8c0-2.947 2-6.667 4-6.667zM16 4c0.327 0 0.642 0.12 0.886 0.337s0.4 0.516 0.438 0.84l0.009 0.156v6.667c-0 1.183-0.393 2.331-1.117 3.266s-1.738 1.603-2.883 1.899v9.501c-0 0.34-0.13 0.667-0.364 0.914s-0.552 0.396-0.891 0.416c-0.339 0.020-0.673-0.090-0.934-0.308s-0.428-0.528-0.468-0.865l-0.009-0.156v-9.501c-1.099-0.284-2.079-0.912-2.798-1.791s-1.137-1.965-1.196-3.099l-0.007-0.275v-6.667c0-0.34 0.13-0.667 0.364-0.914s0.552-0.396 0.891-0.416c0.339-0.020 0.673 0.090 0.934 0.309s0.428 0.528 0.468 0.865l0.009 0.156v6.667c0 0.468 0.123 0.928 0.357 1.333s0.571 0.742 0.976 0.976v-8.976c0-0.34 0.13-0.667 0.364-0.914s0.552-0.396 0.891-0.416c0.339-0.020 0.673 0.090 0.934 0.309s0.428 0.528 0.468 0.865l0.009 0.156 0.001 8.976c0.372-0.215 0.687-0.517 0.917-0.88s0.37-0.776 0.406-1.204l0.009-0.225v-6.667c0-0.354 0.14-0.693 0.391-0.943s0.589-0.391 0.943-0.391z"></path>
    </symbol>
    <!-- Іконка "Яблуко"-->
    <symbol id="apple" viewBox="0 0 32 32">
      <path fill="#ef8964" style="fill: var(--color4, #ef8964)" d="M19.454 4.758c0.102-0.031 0.198-0.082 0.28-0.151s0.15-0.153 0.199-0.248 0.079-0.199 0.087-0.306c0.008-0.107-0.005-0.214-0.039-0.315s-0.088-0.195-0.159-0.275c-0.071-0.080-0.157-0.146-0.253-0.192s-0.201-0.073-0.308-0.078c-0.107-0.005-0.214 0.011-0.314 0.048-1.501 0.499-2.435 1.731-2.986 3.051-0.074 0.178-0.142 0.359-0.203 0.542-0.3-0.568-0.683-1.087-1.138-1.541-0.615-0.616-1.35-1.1-2.159-1.422s-1.675-0.475-2.546-0.45c-0.928 0.026-1.669 0.768-1.694 1.694-0.025 0.87 0.128 1.737 0.45 2.546s0.806 1.543 1.422 2.159l0.050 0.048c-1.344 0.291-2.559 1.007-3.464 2.042s-1.454 2.334-1.563 3.705l-0.010 0.118c-0.211 2.636 0.35 5.275 1.616 7.597l0.576 1.053c0.016 0.027 0.032 0.054 0.051 0.080l1.6 2.243c0.363 0.508 0.832 0.931 1.374 1.239s1.146 0.495 1.768 0.546c0.622 0.051 1.248-0.033 1.833-0.248s1.118-0.555 1.559-0.996c0.068-0.068 0.148-0.122 0.237-0.158s0.183-0.056 0.279-0.056c0.096 0 0.191 0.019 0.279 0.056s0.169 0.090 0.237 0.158c0.441 0.441 0.973 0.781 1.559 0.996s1.212 0.3 1.833 0.248c0.622-0.052 1.225-0.238 1.768-0.546s1.012-0.731 1.374-1.239l1.6-2.242c0.019-0.026 0.036-0.053 0.051-0.082l0.574-1.053c1.266-2.321 1.827-4.961 1.616-7.597l-0.008-0.118c-0.071-0.884-0.324-1.743-0.745-2.523s-0.998-1.465-1.697-2.010-1.503-0.94-2.362-1.158c-0.859-0.218-1.754-0.256-2.628-0.11l-2.651 0.442c0.016-1.090 0.208-2.315 0.638-3.349 0.448-1.080 1.114-1.848 2.013-2.149h0.002zM11.054 14.358c-0.246 0.078-0.473 0.203-0.67 0.369s-0.359 0.37-0.477 0.599c-0.296 0.557-0.499 1.475-0.312 2.974 0.021 0.208-0.040 0.416-0.17 0.579s-0.319 0.269-0.526 0.295c-0.207 0.026-0.416-0.030-0.583-0.157s-0.277-0.313-0.308-0.519c-0.213-1.702-0.016-2.984 0.488-3.926 0.512-0.96 1.291-1.478 2.053-1.733 0.1-0.033 0.205-0.046 0.31-0.039s0.207 0.036 0.301 0.083c0.094 0.047 0.178 0.112 0.247 0.191s0.121 0.172 0.155 0.271c0.033 0.1 0.046 0.205 0.039 0.31s-0.036 0.207-0.083 0.301c-0.047 0.094-0.112 0.178-0.191 0.247s-0.172 0.121-0.271 0.155z"></path>
    </symbol>
    <!-- Іконка "Календар"-->
    <symbol id="calendar" viewBox="0 0 24 24">
      <path fill="none" stroke-linecap="round" stroke-linejoin="round" stroke-width="1.8" d="M19 4H5a2 2 0 0 0-2 2v14a2 2 0 0 0 2 2h14a2 2 0 0 0 2-2V6a2 2 0 0 0-2-2ZM16 2v4M8 2v4M3 10h18"></path>
    </symbol>
    <!-- Іконка "Календар Data"-->
    <symbol id="calendar-data" viewBox="0 0 32 32">
      <path stroke-linejoin="round" stroke-linecap="round" stroke-miterlimit="4" stroke-width="2.6667" d="M25.333 5.333h-18.667c-1.473 0-2.667 1.194-2.667 2.667v18.667c0 1.473 1.194 2.667 2.667 2.667h18.667c1.473 0 2.667-1.194 2.667-2.667v-18.667c0-1.473-1.194-2.667-2.667-2.667z"></path>
      <path stroke-linejoin="round" stroke-linecap="round" stroke-miterlimit="4" stroke-width="2.6667" d="M21.333 2.667v5.333"></path>
      <path stroke-linejoin="round" stroke-linecap="round" stroke-miterlimit="4" stroke-width="2.6667" d="M10.667 2.667v5.333"></path>
      <path stroke-linejoin="round" stroke-linecap="round" stroke-miterlimit="4" stroke-width="2.6667" d="M4 13.333h24"></path>
    </symbol>
    <!-- Іконка "Закритий глаз"-->
    <symbol id="eye-off" viewBox="0 0 32 32">
      <path fill="none" stroke="#efede8" style="stroke: var(--color2, #efede8)" stroke-linejoin="round" stroke-linecap="round" stroke-miterlimit="4" stroke-width="2.88" d="M23.92 23.92c-2.279 1.737-5.055 2.7-7.92 2.747-9.333 0-14.667-10.667-14.667-10.667 1.659-3.091 3.959-5.791 6.747-7.92M13.2 5.653c0.918-0.215 1.857-0.322 2.8-0.32 9.333 0 14.667 10.667 14.667 10.667-0.809 1.514-1.775 2.94-2.88 4.253M18.827 18.827c-0.366 0.393-0.808 0.708-1.299 0.927s-1.020 0.336-1.557 0.346c-0.537 0.009-1.071-0.089-1.569-0.291s-0.95-0.501-1.33-0.88c-0.38-0.38-0.679-0.832-0.88-1.33s-0.3-1.032-0.29-1.569c0.009-0.537 0.127-1.067 0.346-1.558s0.534-0.932 0.927-1.298"></path>
      <path fill="none" stroke="#efede8" style="stroke: var(--color2, #efede8)" stroke-linejoin="round" stroke-linecap="round" stroke-miterlimit="4" stroke-width="2.88" d="M1.333 1.333l29.333 29.333"></path>
    </symbol>
    <!-- Іконка "Відкритий глаз"-->
    <symbol id="eye" viewBox="0 0 32 32">
      <path fill="none" stroke="#efede8" style="stroke: var(--color2, #efede8)" stroke-linejoin="round" stroke-linecap="round" stroke-miterlimit="4" stroke-width="2.88" d="M1.333 16c0 0 5.333-10.667 14.667-10.667s14.667 10.667 14.667 10.667-5.333 10.667-14.667 10.667c-9.333 0-14.667-10.667-14.667-10.667z"></path>
      <path fill="none" stroke="#efede8" style="stroke: var(--color2, #efede8)" stroke-linejoin="round" stroke-linecap="round" stroke-miterlimit="4" stroke-width="2.88" d="M16 20c2.209 0 4-1.791 4-4s-1.791-4-4-4c-2.209 0-4 1.791-4 4s1.791 4 4 4z"></path>
    </symbol>
    <!-- Іконка "Подвійна галочка вправо"-->
    <symbol id="double-nav-arrow-right" viewBox="0 0 9 10">
      <path fill="none" stroke-linecap="round" stroke-linejoin="round" stroke-width="1.5" d="m4 1 4 4-4 4"></path>
      <path fill="none" stroke-linecap="round" stroke-linejoin="round" stroke-width="1.5" d="m1 1 4 4-4 4"></path>
    </symbol>
    <!-- Іконка "Галочка вправо"-->
    <symbol id="nav-arrow-right" viewBox="0 0 6 10">
      <path fill="none" stroke-linecap="round" stroke-linejoin="round" stroke-width="1.5" d="m1 1 4 4-4 4"></path>
    </symbol>
    <!-- Іконка "Подвійна галочка вліво"-->
    <symbol id="double-nav-arrow-left" viewBox="0 0 9 10">
      <path fill="none" stroke-linecap="round" stroke-linejoin="round" stroke-width="1.5" d="M8 9 4 5l4-4"></path>
      <path fill="none" stroke-linecap="round" stroke-linejoin="round" stroke-width="1.5" d="M5 9 1 5l4-4"></path>
    </symbol>
    <!-- Іконка "Галочка вліво"-->
    <symbol id="nav-arrow-left" viewBox="0 0 6 10">
      <path fill="none" stroke-linecap="round" stroke-linejoin="round" stroke-width="1.5" d="M5 9 1 5l4-4"></path>
    </symbol>
    <!-- Іконка "Бульбашки"-->
    <symbol id="bubble" viewBox="0 0 32 32">
      <path fill="#ef8964" style="fill: var(--color1, #ef8964)" d="M20.794 16.346c3.778 0 6.84-3.062 6.84-6.84s-3.062-6.84-6.84-6.84v0c-3.778 0-6.84 3.062-6.84 6.84s3.062 6.84 6.84 6.84v0zM8.475 25.92c2.268 0 4.107-1.839 4.107-4.107s-1.839-4.107-4.107-4.107v0c-2.233 0.045-4.026 1.867-4.026 4.106s1.793 4.061 4.022 4.106l0.004 0zM22.15 29.333c1.885 0 3.414-1.528 3.414-3.414s-1.528-3.414-3.414-3.414v0c-1.885 0-3.414 1.528-3.414 3.414s1.528 3.414 3.414 3.414v0z"></path>
    </symbol>
    <!-- Іконка "Знак оклику без фону" -->
    <symbol id="exclamation-mark" viewBox="0 0 32 32">
      <path fill="none" stroke="#efede8" style="stroke: var(--color1, #efede8)" stroke-linejoin="round" stroke-linecap="round" stroke-miterlimit="4" stroke-width="2.6667" d="M16 25.333v0.013M16 20v-13.333"></path>
    </symbol>
    <!-- Іконка "Стрілка вправо Сіра". ДУБЛЬ-->
    <symbol id="arrow-add-prod" viewBox="0 0 32 32">
      <path fill="none" stroke="inherit"   stroke-linejoin="round" stroke-linecap="round" stroke-miterlimit="4" stroke-width="2.6" d="M15 28l13-13M28 15l-13-13M28 15h-26"></path>
    </symbol>
    <!-- Іконка "Стрілка вправо Рожева". ДУБЛЬ -->
    <symbol id="arrow-add-prod-orange" viewBox="0 0 32 32">
      <path fill="none" stroke="#e6533c" style="stroke: var(--color1, #e6533c)" stroke-linejoin="round" stroke-linecap="round" stroke-miterlimit="4" stroke-width="2.6" d="M15 28l13-13M28 15l-13-13M28 15h-26"></path>
    </symbol>
    <!-- Іконка "Стрілка вліво". Без кольору -->
    <symbol id="big-arrow-left" viewBox="0 0 42 32">
      <path stroke-linejoin="round" stroke-linecap="round" stroke-miterlimit="4" stroke-width="4.8" d="M18.133 29.333l-13.333-13.333M4.8 16l13.333-13.333M4.8 16h32"></path>
    </symbol>
    <!-- Іконка "Стрілка вправо". Без кольору -->
    <symbol id="big-arrow-right" viewBox="0 0 42 32">
      <path stroke-linejoin="round" stroke-linecap="round" stroke-miterlimit="4" stroke-width="4.8" d="M23.467 29.333l13.333-13.333M36.8 16l-13.333-13.333M36.8 16h-32"></path>
    </symbol>
    <!-- Іконка "Людина, яка біжить. З фоном". ДУБЛЬ -->
    <symbol id="run-man" viewBox="0 0 32 32">
      <path fill="#efa082" style="fill: var(--color1, #efa082)" d="M32 16c0 8.837-7.163 16-16 16s-16-7.163-16-16c0-8.837 7.163-16 16-16s16 7.163 16 16z"></path>
      <path fill="#efede8" style="fill: var(--color2, #efede8)" d="M25.097 11.633c-0.146-0.173-0.363-0.282-0.605-0.282-0.193 0-0.37 0.069-0.507 0.184l0.001-0.001-2.188 1.837-1.007-2.493c-0.038-0.093-0.089-0.172-0.152-0.24l0 0c-0.214-0.478-0.583-0.855-1.042-1.073l-0.013-0.006c-0.191-0.087-0.413-0.148-0.645-0.173l-0.009-0.001c-0.049-0.027-0.093-0.060-0.148-0.077l-3.851-1.073c-0.062-0.017-0.133-0.027-0.206-0.027-0.149 0-0.289 0.041-0.408 0.113l0.004-0.002c-0.22 0.072-0.393 0.235-0.478 0.443l-0.002 0.005-1.449 3.728c-0.034 0.085-0.053 0.182-0.053 0.285 0 0.334 0.206 0.619 0.498 0.736l0.005 0.002c0.084 0.033 0.182 0.053 0.284 0.053 0.334 0 0.62-0.207 0.736-0.501l0.002-0.005 1.224-3.147 1.753 0.487c-0.043 0.069-0.088 0.133-0.123 0.208l-2.249 4.873c-0.032 0.072-0.049 0.144-0.072 0.219l-2.733 4.58-4.571 1.529c-0.289 0.215-0.475 0.556-0.475 0.94 0 0.645 0.523 1.168 1.168 1.168 0.261 0 0.502-0.086 0.696-0.23l-0.003 0.002 4.68-1.612c0.135-0.103 0.244-0.232 0.321-0.38l0.003-0.006c0.060-0.063 0.127-0.112 0.172-0.189l1.628-2.731 2.892 2.464-3.093 3.485c-0.19 0.207-0.306 0.484-0.306 0.787 0 0.644 0.522 1.167 1.167 1.167 0.354 0 0.671-0.157 0.885-0.406l0.001-0.002 3.861-4.349c0.12-0.133 0.192-0.288 0.24-0.449 0.029-0.088 0.029-0.18 0.036-0.271 0-0.047 0.017-0.088 0.013-0.131-0.006-0.34-0.159-0.642-0.398-0.848l-0.002-0.001-2.66-2.268c0.191-0.183 0.355-0.4 0.472-0.656l1.724-3.733 0.552 1.472c0.023 0.131 0.067 0.259 0.16 0.365 0.080 0.093 0.181 0.166 0.296 0.212l0.005 0.002 0.040 0.009c0.083 0.034 0.179 0.054 0.279 0.054 0.075 0 0.147-0.011 0.215-0.031l-0.005 0.001h0.004c0.024-0.007 0.048-0.003 0.072-0.013 0.124-0.051 0.229-0.128 0.31-0.225l0.001-0.001 3.141-2.663c0.333-0.28 0.193-0.777-0.088-1.112zM21.127 9.735c1.215 0 2.201-0.985 2.201-2.201s-0.985-2.201-2.201-2.201v0c-1.215 0-2.201 0.985-2.201 2.201s0.985 2.201 2.201 2.201v0z"></path>
    </symbol>
    <!-- Іконка "Галочка підтверждення політики з фоном". Взагалі не знайшов де на сайті така використовується  -->
    <symbol id="checkmark" viewBox="0 0 32 32">
      <path d="M16 3c-7.18 0-13 5.82-13 13s5.82 13 13 13 13-5.82 13-13-5.82-13-13-13zM23.258 12.307l-9.486 9.485c-0.238 0.237-0.623 0.237-0.861 0l-0.191-0.191-0.001 0.001-5.219-5.256c-0.238-0.238-0.238-0.624 0-0.862l1.294-1.293c0.238-0.238 0.624-0.238 0.862 0l3.689 3.716 7.756-7.756c0.238-0.238 0.624-0.238 0.862 0l1.294 1.294c0.239 0.237 0.239 0.623 0.001 0.862z"></path>
    </symbol>
    <symbol id="icon-arrow" viewBox="0 0 32 32">
      <path fill="none" style="stroke: var(--color1)" stroke-linejoin="round" stroke-linecap="round" stroke-miterlimit="4" stroke-width="2.6" d="M17 28l-13-13M4 15l13-13M4 15h26"></path>
    </symbol>
    <symbol id="x-clean" viewBox="0 0 32 32">
      <path fill="none" stroke="#e6533c" style="stroke: var(--color1, #e6533c)" stroke-linejoin="round" stroke-linecap="round" stroke-miterlimit="4" stroke-width="3.5556" d="M24 8l-16 16M8 8l16 16"></path>
    </symbol>
    <!-- Іконка Google-->
    <symbol id="google" viewBox="0 0 32 32">
      <path fill="#ffc107" style="fill: var(--color1, #ffc107)" d="M29.074 13.389h-1.074v-0.055h-12v5.333h7.535c-1.099 3.105-4.053 5.333-7.535 5.333-4.418 0-8-3.582-8-8s3.582-8 8-8c2.039 0 3.895 0.769 5.307 2.026l3.771-3.771c-2.381-2.219-5.567-3.588-9.079-3.588-7.363 0-13.333 5.97-13.333 13.333s5.97 13.333 13.333 13.333 13.333-5.97 13.333-13.333c0-0.894-0.092-1.767-0.259-2.611z"></path>
      <path fill="#ff3d00" style="fill: var(--color2, #ff3d00)" d="M4.204 9.794l4.381 3.213c1.185-2.935 4.056-5.007 7.415-5.007 2.039 0 3.895 0.769 5.307 2.026l3.771-3.771c-2.381-2.219-5.567-3.588-9.079-3.588-5.121 0-9.563 2.891-11.796 7.127z"></path>
      <path fill="#4caf50" style="fill: var(--color3, #4caf50)" d="M16 29.333c3.444 0 6.573-1.318 8.939-3.461l-4.127-3.492c-1.318 1.011-2.991 1.62-4.806 1.62-0.002 0-0.004 0-0.007 0h0c-3.468 0-6.413-2.211-7.522-5.297l-4.348 3.35c2.207 4.318 6.688 7.281 11.87 7.281z"></path>
      <path fill="#1976d2" style="fill: var(--color4, #1976d2)" d="M29.074 13.389h-1.074v-0.055h-12v5.333h7.535c-0.549 1.515-1.492 2.776-2.705 3.7l-0.020 0.014 0.002-0.001 4.127 3.492c-0.292 0.265 4.394-3.205 4.394-9.871 0-0.894-0.092-1.767-0.259-2.611z"></path>
    </symbol>

    <symbol id="icon-calendar" viewBox="0 0 31 32">
<path fill="#1a1a1a" style="fill: var(--color1, #1a1a1a)" d="M20.142 13.681h3.881c0.272 0 0.494 0.224 0.494 0.494v2.612c-1.489 0.017-2.888 0.419-4.104 1.112h-0.272c-0.271 0-0.494-0.222-0.494-0.494v-3.229c0-0.272 0.222-0.494 0.494-0.494zM2.709 2.726h2.498v3.334c0 0.927 0.431 1.746 1.127 2.316 0.588 0.482 1.37 0.781 2.206 0.781 0.835 0 1.618-0.299 2.205-0.781 0.696-0.57 1.127-1.389 1.127-2.316v-3.334h5.046v3.334c0 0.927 0.431 1.746 1.126 2.316 0.588 0.482 1.37 0.781 2.206 0.781s1.618-0.299 2.205-0.781c0.696-0.57 1.127-1.389 1.127-2.316v-3.334h2.608c0.744 0 1.421 0.306 1.913 0.797 0.492 0.49 0.797 1.167 0.797 1.912v12.511c-0.28-0.164-0.569-0.312-0.868-0.443v-6.934h-27.164v16.047c0 1.171 0.959 2.13 2.13 2.13h13.822c0.132 0.298 0.282 0.588 0.447 0.867h-14.559c-0.743 0-1.42-0.305-1.911-0.796-0.493-0.494-0.798-1.17-0.798-1.913v-21.47c0-0.744 0.305-1.42 0.796-1.912 0.492-0.492 1.17-0.797 1.913-0.797zM7.231 1.072c0-0.592 0.586-1.072 1.309-1.072s1.308 0.481 1.308 1.072v4.987c0 0.591-0.585 1.072-1.308 1.072s-1.309-0.481-1.309-1.072v-4.987zM18.942 1.072c0-0.592 0.585-1.072 1.308-1.072s1.308 0.481 1.308 1.072v4.987c0 0.591-0.585 1.072-1.308 1.072s-1.308-0.481-1.308-1.072v-4.987zM4.876 13.681h3.881c0.272 0 0.494 0.224 0.494 0.494v3.229c0 0.271-0.224 0.494-0.494 0.494h-3.881c-0.271 0-0.495-0.222-0.495-0.494v-3.229c0-0.272 0.223-0.494 0.495-0.494zM4.876 20.548h3.881c0.272 0 0.494 0.224 0.494 0.494v3.229c0 0.271-0.224 0.494-0.494 0.494h-3.881c-0.271 0-0.495-0.222-0.495-0.494v-3.229c0-0.272 0.223-0.494 0.495-0.494zM12.55 13.681h3.881c0.272 0 0.494 0.224 0.494 0.494v3.229c0 0.271-0.224 0.494-0.494 0.494h-3.881c-0.271 0-0.494-0.222-0.494-0.494v-3.229c0-0.272 0.222-0.494 0.494-0.494zM12.55 20.548h3.881c0.272 0 0.494 0.224 0.494 0.494v0.601c-0.447 0.911-0.739 1.974-0.812 3.098l-0.001 0.025h-3.562c-0.271 0-0.494-0.222-0.494-0.494v-3.229c0-0.272 0.222-0.494 0.494-0.494z"></path>
<path fill="#10a64a" style="fill: var(--color2, #10a64a)" d="M24.615 18.615c-3.695 0-6.692 2.997-6.692 6.693s2.997 6.692 6.692 6.692c3.696 0 6.693-2.997 6.693-6.692s-2.997-6.693-6.693-6.693zM22.683 24.361l1.095 1.035 2.619-2.697c0.215-0.217 0.349-0.392 0.614-0.12l0.858 0.88c0.282 0.278 0.268 0.442 0.003 0.702l-3.603 3.586c-0.561 0.549-0.463 0.583-1.031 0.019l-2-1.988c-0.118-0.127-0.106-0.257 0.024-0.385l0.996-1.034c0.151-0.159 0.271-0.146 0.424 0.001z"></path>
</symbol>

    <!-- Help icon -->
    <symbol id="help" viewBox="0 0 20 20">
      <path d="M14.090 2.233c-1.14-0.822-2.572-1.233-4.296-1.233-1.311 0-2.418 0.289-3.317 0.868-1.427 0.906-2.185 2.445-2.277 4.615h3.307c0-0.633 0.185-1.24 0.553-1.828 0.369-0.586 0.995-0.879 1.878-0.879 0.898 0 1.517 0.238 1.854 0.713 0.339 0.477 0.508 1.004 0.508 1.582 0 0.504-0.252 0.965-0.557 1.383-0.167 0.244-0.387 0.469-0.661 0.674 0 0-1.793 1.15-2.58 2.074-0.456 0.535-0.497 1.338-0.538 2.488-0.002 0.082 0.029 0.252 0.315 0.252s2.316 0 2.571 0c0.256 0 0.309-0.189 0.312-0.274 0.018-0.418 0.064-0.633 0.141-0.875 0.144-0.457 0.538-0.855 0.979-1.199l0.91-0.627c0.822-0.641 1.477-1.166 1.767-1.578 0.494-0.676 0.842-1.51 0.842-2.5-0.001-1.615-0.571-2.832-1.711-3.656zM9.741 14.924c-1.139-0.035-2.079 0.754-2.115 1.99-0.035 1.234 0.858 2.051 1.998 2.084 1.189 0.035 2.104-0.727 2.141-1.963 0.034-1.236-0.834-2.076-2.024-2.111z"></path>
    </symbol>

  </defs>
</svg>
